<svg xmlns="http://www.w3.org/2000/svg" xmlns:xlink="http://www.w3.org/1999/xlink" width="256" zoomAndPan="magnify" viewBox="0 0 192 36.000001" height="48" preserveAspectRatio="xMidYMid meet" version="1.0"><defs><g/></defs><path fill="#ffffff" d="M 5.648438 2.925781 L 61.945312 2.925781 L 61.945312 31.480469 L 5.648438 31.480469 L 5.648438 2.925781 " fill-opacity="1" fill-rule="nonzero"/><g fill="#000000" fill-opacity="1"><g transform="translate(14.684722, 24.110597)"><g><path d="M 9.515625 -6.328125 L 12.25 -6.328125 L 12.25 -1.46875 C 11.570312 -1 10.753906 -0.613281 9.796875 -0.3125 C 8.847656 -0.0078125 7.941406 0.140625 7.078125 0.140625 C 5.179688 0.140625 3.597656 -0.460938 2.328125 -1.671875 C 1.054688 -2.890625 0.421875 -4.40625 0.421875 -6.21875 C 0.421875 -8.019531 1.070312 -9.523438 2.375 -10.734375 C 3.6875 -11.941406 5.328125 -12.546875 7.296875 -12.546875 C 8.210938 -12.546875 9.128906 -12.378906 10.046875 -12.046875 C 10.960938 -11.722656 11.738281 -11.273438 12.375 -10.703125 L 10.59375 -8.546875 C 10.144531 -8.960938 9.625 -9.289062 9.03125 -9.53125 C 8.4375 -9.78125 7.847656 -9.90625 7.265625 -9.90625 C 6.253906 -9.90625 5.398438 -9.550781 4.703125 -8.84375 C 4.003906 -8.132812 3.65625 -7.257812 3.65625 -6.21875 C 3.65625 -5.164062 4.003906 -4.28125 4.703125 -3.5625 C 5.410156 -2.851562 6.28125 -2.5 7.3125 -2.5 C 7.96875 -2.5 8.703125 -2.703125 9.515625 -3.109375 Z M 9.515625 -6.328125 "/></g></g></g><g fill="#000000" fill-opacity="1"><g transform="translate(31.740892, 24.110597)"><g><path d="M 10.5625 -9.578125 L 10.5625 0 L 7.484375 0 L 7.484375 -1.578125 C 6.835938 -0.441406 5.800781 0.125 4.375 0.125 C 3.332031 0.125 2.5 -0.203125 1.875 -0.859375 C 1.25 -1.523438 0.9375 -2.414062 0.9375 -3.53125 L 0.9375 -9.578125 L 4.015625 -9.578125 L 4.015625 -4.40625 C 4.015625 -3.84375 4.160156 -3.394531 4.453125 -3.0625 C 4.742188 -2.738281 5.132812 -2.578125 5.625 -2.578125 C 6.195312 -2.585938 6.648438 -2.800781 6.984375 -3.21875 C 7.316406 -3.644531 7.484375 -4.191406 7.484375 -4.859375 L 7.484375 -9.578125 Z M 10.5625 -9.578125 "/></g></g></g><g fill="#000000" fill-opacity="1"><g transform="translate(47.374279, 24.110597)"><g><path d="M 1.609375 -13.5 C 1.910156 -13.800781 2.296875 -13.953125 2.765625 -13.953125 C 3.242188 -13.953125 3.632812 -13.800781 3.9375 -13.5 C 4.238281 -13.195312 4.390625 -12.804688 4.390625 -12.328125 C 4.390625 -11.859375 4.238281 -11.46875 3.9375 -11.15625 C 3.632812 -10.851562 3.242188 -10.703125 2.765625 -10.703125 C 2.296875 -10.703125 1.910156 -10.851562 1.609375 -11.15625 C 1.304688 -11.46875 1.15625 -11.859375 1.15625 -12.328125 C 1.15625 -12.804688 1.304688 -13.195312 1.609375 -13.5 Z M 4.28125 0 L 1.234375 0 L 1.234375 -9.578125 L 4.28125 -9.578125 Z M 4.28125 0 "/></g></g></g><g fill="#ffffff" fill-opacity="1"><g transform="translate(65.010733, 24.256873)"><g><path d="M 10.46875 -9.953125 L 4.40625 -9.953125 L 4.40625 -7.078125 L 10 -7.078125 L 10 -4.59375 L 4.40625 -4.59375 L 4.40625 0 L 1.25 0 L 1.25 -12.453125 L 10.46875 -12.453125 Z M 10.46875 -9.953125 "/></g></g></g><g fill="#ffffff" fill-opacity="1"><g transform="translate(79.594827, 24.256873)"><g><path d="M 10.984375 -9.953125 L 4.40625 -9.953125 L 4.40625 -7.484375 L 10.34375 -7.484375 L 10.34375 -5 L 4.40625 -5 L 4.40625 -2.484375 L 11.1875 -2.484375 L 11.1875 0 L 1.25 0 L 1.25 -12.453125 L 10.984375 -12.453125 Z M 10.984375 -9.953125 "/></g></g></g><g fill="#ffffff" fill-opacity="1"><g transform="translate(95.423858, 24.256873)"><g><path d="M 8.75 0 L 6.90625 -3.5 L 4.40625 -3.5 L 4.40625 0 L 1.25 0 L 1.25 -12.453125 L 6.8125 -12.453125 C 8.457031 -12.453125 9.726562 -12.070312 10.625 -11.3125 C 11.53125 -10.5625 11.984375 -9.492188 11.984375 -8.109375 C 11.984375 -6.191406 11.226562 -4.859375 9.71875 -4.109375 L 12.34375 0 Z M 4.40625 -6 L 6.8125 -6 C 7.5 -6 8.03125 -6.171875 8.40625 -6.515625 C 8.789062 -6.859375 8.984375 -7.351562 8.984375 -8 C 8.984375 -8.644531 8.789062 -9.128906 8.40625 -9.453125 C 8.03125 -9.785156 7.5 -9.953125 6.8125 -9.953125 L 4.40625 -9.953125 Z M 4.40625 -6 "/></g></g></g><g fill="#ffffff" fill-opacity="1"><g transform="translate(112.142131, 24.256873)"><g><path d="M 8.75 0 L 6.90625 -3.5 L 4.40625 -3.5 L 4.40625 0 L 1.25 0 L 1.25 -12.453125 L 6.8125 -12.453125 C 8.457031 -12.453125 9.726562 -12.070312 10.625 -11.3125 C 11.53125 -10.5625 11.984375 -9.492188 11.984375 -8.109375 C 11.984375 -6.191406 11.226562 -4.859375 9.71875 -4.109375 L 12.34375 0 Z M 4.40625 -6 L 6.8125 -6 C 7.5 -6 8.03125 -6.171875 8.40625 -6.515625 C 8.789062 -6.859375 8.984375 -7.351562 8.984375 -8 C 8.984375 -8.644531 8.789062 -9.128906 8.40625 -9.453125 C 8.03125 -9.785156 7.5 -9.953125 6.8125 -9.953125 L 4.40625 -9.953125 Z M 4.40625 -6 "/></g></g></g><g fill="#ffffff" fill-opacity="1"><g transform="translate(128.8604, 24.256873)"><g><path d="M 10.984375 -9.953125 L 4.40625 -9.953125 L 4.40625 -7.484375 L 10.34375 -7.484375 L 10.34375 -5 L 4.40625 -5 L 4.40625 -2.484375 L 11.1875 -2.484375 L 11.1875 0 L 1.25 0 L 1.25 -12.453125 L 10.984375 -12.453125 Z M 10.984375 -9.953125 "/></g></g></g><g fill="#ffffff" fill-opacity="1"><g transform="translate(144.689429, 24.256873)"><g><path d="M 4.40625 0 L 1.25 0 L 1.25 -12.453125 L 4.40625 -12.453125 Z M 4.40625 0 "/></g></g></g><g fill="#ffffff" fill-opacity="1"><g transform="translate(154.187055, 24.256873)"><g><path d="M 8.75 0 L 6.90625 -3.5 L 4.40625 -3.5 L 4.40625 0 L 1.25 0 L 1.25 -12.453125 L 6.8125 -12.453125 C 8.457031 -12.453125 9.726562 -12.070312 10.625 -11.3125 C 11.53125 -10.5625 11.984375 -9.492188 11.984375 -8.109375 C 11.984375 -6.191406 11.226562 -4.859375 9.71875 -4.109375 L 12.34375 0 Z M 4.40625 -6 L 6.8125 -6 C 7.5 -6 8.03125 -6.171875 8.40625 -6.515625 C 8.789062 -6.859375 8.984375 -7.351562 8.984375 -8 C 8.984375 -8.644531 8.789062 -9.128906 8.40625 -9.453125 C 8.03125 -9.785156 7.5 -9.953125 6.8125 -9.953125 L 4.40625 -9.953125 Z M 4.40625 -6 "/></g></g></g><g fill="#ffffff" fill-opacity="1"><g transform="translate(170.905324, 24.256873)"><g><path d="M 9.515625 -2.296875 L 4.078125 -2.296875 L 3.171875 0 L -0.09375 0 L 5.28125 -12.453125 L 8.53125 -12.453125 L 13.78125 0 L 10.40625 0 Z M 8.59375 -4.6875 L 6.8125 -9.296875 L 5 -4.6875 Z M 8.59375 -4.6875 "/></g></g></g></svg>